<?xml version="1.0" encoding="utf-8"?>
<!-- Generator: Adobe Illustrator 23.1.0, SVG Export Plug-In . SVG Version: 6.00 Build 0)  -->
<svg version="1.1" id="Layer_1" xmlns="http://www.w3.org/2000/svg" xmlns:xlink="http://www.w3.org/1999/xlink" x="0px" y="0px"
	 viewBox="0 0 216 145" style="enable-background:new 0 0 216 145;" xml:space="preserve">
<style type="text/css">
	.st0{opacity:0.1;fill:#FFFFFF;enable-background:new    ;}
	.st1{fill:#FFFFFF;}
	.st2{opacity:0.1;enable-background:new    ;}
	.st3{fill:#3F3D56;}
	.st4{fill:#3A3768;}
	.st5{fill:#E6E8EC;}
	.st6{opacity:0.1;stroke:#FFFFFF;stroke-miterlimit:10;enable-background:new    ;}
	.st7{opacity:0.4;}
	.st8{fill:#FF6F61;}
	.st9{opacity:0.1;fill:none;stroke:#FFFFFF;stroke-width:3;stroke-miterlimit:10;enable-background:new    ;}
	.st10{fill:url(#SVGID_1_);}
	.st11{fill:#A0616A;}
</style>
<g>
	<ellipse class="st0" cx="145" cy="142.28" rx="26.4" ry="1.86"/>
	<path class="st0" d="M214.52,85.29c-0.02,27.53-22.35,49.83-49.87,49.81c-2.63,0-5.26-0.21-7.86-0.63H77.81
		c-3.05,0.42-6.13,0.63-9.2,0.63c-2.21,0-4.39-0.11-6.55-0.32c-34.39-3.34-60.61-32.26-60.58-66.81c0-37.07,30.05-67.13,67.13-67.13
		c29.86,0,55.16,19.49,63.88,46.45c8.99-7.65,20.42-11.84,32.23-11.83C192.22,35.48,214.52,57.78,214.52,85.29z"/>
	<path class="st0" d="M195.38,124.54c-10.93,8.53-24.91,12.13-38.6,9.94H77.81c-3.05,0.42-6.13,0.63-9.2,0.63
		c-2.21,0-4.39-0.11-6.55-0.32c-26.73-2.62-49.33-20.92-57.46-46.53c6.43-13.74,22.95-23.52,42.32-23.52
		c18.87,0,35.05,9.29,41.8,22.48c3.32-0.6,6.7-0.91,10.08-0.91c19.56,0,36.22,9.98,42.51,23.93c5.21-1.58,10.62-2.38,16.07-2.36
		C173.32,107.89,187.34,114.52,195.38,124.54z"/>
	<path class="st1" d="M66.88,126.04c0,4.76-1.83,7.35-4.82,8.75c-11.28-1.09-22.09-5.03-31.42-11.45c0.24-1.62,0.7-3.2,1.36-4.7
		l8.51,2.65l-7.58-4.46c1.03-1.75,2.34-3.32,3.88-4.64l14.3,4.45l-11.21-6.58c8.83-4.84,19.9-1.6,24.74,7.22
		c0.45,0.83,0.84,1.69,1.16,2.58l0.04,0.11c0.03,0.08,0.06,0.17,0.09,0.25c0.1,0.3,0.19,0.6,0.28,0.9c0.03,0.11,0.06,0.22,0.09,0.33
		c0.03,0.11,0.05,0.21,0.08,0.31c0.02,0.1,0.04,0.19,0.06,0.27c0.01,0.06,0.03,0.11,0.04,0.17c0.02,0.09,0.04,0.19,0.06,0.27
		c0.03,0.13,0.05,0.26,0.07,0.39c0.02,0.13,0.05,0.27,0.07,0.41c0.02,0.14,0.04,0.3,0.06,0.45c0.02,0.15,0.03,0.27,0.05,0.41
		c0,0.04,0.01,0.08,0.01,0.13c0.01,0.12,0.02,0.24,0.03,0.36c0,0.02,0,0.03,0,0.05c0.01,0.15,0.02,0.3,0.03,0.45
		c0.01,0.15,0.01,0.29,0.02,0.44c0,0.01,0,0.03,0,0.04C66.88,125.73,66.88,125.89,66.88,126.04z"/>
	<path class="st2" d="M66.88,126.04c0,4.76-1.83,7.35-4.82,8.75c-7.29-0.7-14.42-2.6-21.09-5.62l0.3-0.2
		c1.38-0.91,2.8-1.85,4.42-2.16c1.43-0.27,2.9-0.04,4.35-0.12c2.52-0.15,4.9-1.24,6.66-3.05c1.04-1.07,1.86-2.39,3.1-3.2
		c1.34-0.88,3.05-1.07,4.64-0.85c0.46,0.07,0.92,0.16,1.37,0.28l0.04,0.11c0.03,0.08,0.06,0.17,0.09,0.25c0.1,0.3,0.19,0.6,0.28,0.9
		c0.03,0.11,0.06,0.22,0.09,0.33c0.03,0.11,0.05,0.21,0.08,0.31c0.02,0.1,0.04,0.19,0.06,0.27c0.01,0.06,0.03,0.11,0.04,0.17
		c0.02,0.09,0.04,0.19,0.06,0.27c0.03,0.13,0.05,0.26,0.07,0.39c0.02,0.13,0.05,0.27,0.07,0.41c0.02,0.14,0.04,0.3,0.06,0.45
		c0.02,0.15,0.03,0.27,0.05,0.41c0,0.04,0.01,0.08,0.01,0.13c0.01,0.12,0.02,0.24,0.03,0.36c0,0.02,0,0.03,0,0.05
		c0.01,0.15,0.02,0.3,0.03,0.45c0.01,0.15,0.01,0.29,0.02,0.44c0,0.01,0,0.03,0,0.04C66.88,125.73,66.88,125.89,66.88,126.04z"/>
	<path class="st3" d="M175.43,129.13c0,0.48-0.05,0.97-0.15,1.44c-0.02,0.09-0.04,0.18-0.06,0.26c-0.53,2.12-2.02,3.67-3.8,3.77
		c-0.06,0-0.12,0-0.19,0c-1.88,0-3.47-1.62-3.99-3.85c-0.01-0.06-0.03-0.12-0.04-0.19c-0.1-0.47-0.15-0.96-0.15-1.44
		c0-3.03,1.87-5.48,4.18-5.48C173.56,123.64,175.43,126.11,175.43,129.13z"/>
	<path class="st2" d="M175.43,129.13c0,0.48-0.05,0.97-0.15,1.44c-0.02,0.09-0.04,0.18-0.06,0.26c-0.06,0-0.12,0-0.19,0
		c-0.46-0.02-0.92-0.09-1.37-0.19c-0.4,0.12-0.81,0.22-1.22,0.28c-0.32,0.05-0.64,0.08-0.96,0.09c-0.11,0-0.22,0-0.32,0
		c-0.38,0-0.77-0.03-1.15-0.08c-0.61-0.08-1.22-0.23-1.8-0.45c-0.32,0.11-0.64,0.19-0.97,0.26c-0.01-0.06-0.03-0.12-0.04-0.19
		c-0.1-0.47-0.15-0.96-0.15-1.44c0-3.03,1.87-5.48,4.18-5.48C173.56,123.65,175.43,126.11,175.43,129.13z"/>
	<path class="st1" d="M184.36,118.93c0-1.33-0.31-2.64-0.91-3.83l-4.92,1.53l4.32-2.54c-1.47-2.12-3.82-3.46-6.39-3.64
		c-0.2-0.31-0.42-0.6-0.66-0.88l-7.07,2.2l5.8-3.41c-3.73-2.86-9.06-2.16-11.92,1.57c-0.68,0.88-1.18,1.89-1.47,2.97l6.05,6.97
		l-6.57-4.75c-3.83,2.72-4.73,8.03-2.02,11.86c2.17,3.05,6.08,4.33,9.63,3.15c1.75,0.64,3.66,0.7,5.44,0.15
		c4.59,1.01,9.13-1.9,10.14-6.5c0.13-0.6,0.2-1.21,0.2-1.82c0-0.19,0-0.37-0.02-0.56C184.24,120.6,184.36,119.77,184.36,118.93z"/>
	<path class="st2" d="M184.21,120.51c-2.6-0.49-5.26-0.53-7.87-0.1c-2.95,0.49-5.97,1.56-8.86,0.78c-1.7-0.46-3.16-1.53-4.82-2.12
		c-1.6-0.56-3.32-0.66-4.97-0.3c-1.81,4.34,0.23,9.32,4.57,11.13c1.9,0.79,4.02,0.87,5.97,0.22c1.75,0.64,3.66,0.7,5.44,0.15
		c4.59,1.01,9.13-1.89,10.14-6.48c0.13-0.6,0.2-1.21,0.2-1.83c0-0.19,0-0.37-0.02-0.56C184.08,121.11,184.15,120.81,184.21,120.51z"
		/>
	<path class="st4" d="M133.36,47.42h0.8c0.24,0,0.43,0.19,0.43,0.43v12.73c0,0.24-0.19,0.43-0.43,0.43h-0.8
		c-0.24,0-0.43-0.19-0.43-0.43V47.85C132.94,47.61,133.13,47.42,133.36,47.42z"/>
	<path class="st4" d="M78.61,36.78h0.07c0.24,0,0.43,0.19,0.43,0.43v3.62c0,0.24-0.19,0.43-0.43,0.43h-0.07
		c-0.24,0-0.43-0.19-0.43-0.43v-3.62C78.19,36.97,78.38,36.78,78.61,36.78z"/>
	<path class="st4" d="M78.58,44.97h0.19c0.24,0,0.43,0.19,0.43,0.43v6.93c0,0.24-0.19,0.43-0.43,0.43h-0.19
		c-0.24,0-0.43-0.19-0.43-0.43v-6.93C78.15,45.16,78.34,44.97,78.58,44.97z"/>
	<path class="st4" d="M78.59,55.47h0.14c0.24,0,0.43,0.19,0.43,0.43v7c0,0.24-0.19,0.43-0.43,0.43h-0.14
		c-0.24,0-0.43-0.19-0.43-0.43v-7C78.17,55.66,78.36,55.47,78.59,55.47z"/>
	<path class="st3" d="M85.96,22.01h40.61c4,0,7.25,3.25,7.25,7.25v97.51c0,4-3.25,7.25-7.25,7.25H85.96c-4,0-7.25-3.25-7.25-7.25
		V29.26C78.71,25.26,81.96,22.01,85.96,22.01z"/>
	<path class="st5" d="M101.67,25.36h6.26c0.4,0,0.72,0.32,0.72,0.72v0.12c0,0.4-0.32,0.72-0.72,0.72h-6.26
		c-0.4,0-0.72-0.32-0.72-0.72v-0.12C100.95,25.68,101.27,25.36,101.67,25.36z"/>
	<circle class="st5" cx="110.7" cy="26.14" r="0.89"/>
	<path class="st1" d="M126.04,24.93h-6.3v0.76c0,1.99-1.61,3.6-3.6,3.6l0,0H96.01c-1.99,0-3.6-1.61-3.6-3.6c0,0,0,0,0,0v-0.76h-5.92
		c-2.42,0-4.38,1.96-4.38,4.38c0,0,0,0,0,0v97.42c0,2.42,1.96,4.38,4.37,4.38c0,0,0,0,0,0h39.55c2.42,0,4.38-1.96,4.38-4.38V29.31
		C130.41,26.89,128.45,24.93,126.04,24.93z"/>
	<rect x="84.14" y="42.41" class="st6" width="27.71" height="4.46"/>
	<circle class="st6" cx="90.83" cy="66.96" r="5.95"/>
	<path class="st1" d="M89.16,65.84v2.23h1.49l1.86,1.94v-6.12l-1.86,1.94H89.16z"/>
	<circle class="st6" cx="106.64" cy="66.96" r="5.95"/>
	<path class="st1" d="M106.64,69.44c-0.39,0-0.71,0.31-0.71,0.71s0.31,0.71,0.71,0.71c0.39,0,0.71-0.31,0.71-0.71c0,0,0,0,0,0
		C107.35,69.76,107.03,69.44,106.64,69.44z M104.56,63.05c-0.39,0-0.71,0.31-0.72,0.7c0,0.39,0.31,0.71,0.7,0.72
		c0.39,0,0.71-0.31,0.72-0.7c0,0,0,0,0-0.01C105.26,63.37,104.95,63.05,104.56,63.05z M104.56,65.18c-0.39,0-0.71,0.31-0.72,0.7
		c0,0.39,0.31,0.71,0.7,0.72c0.39,0,0.71-0.31,0.72-0.7c0,0,0,0,0-0.01C105.26,65.5,104.95,65.18,104.56,65.18L104.56,65.18z
		 M104.56,67.31c-0.39,0-0.71,0.31-0.72,0.7c0,0.39,0.31,0.71,0.7,0.72c0.39,0,0.71-0.31,0.72-0.7c0,0,0,0,0-0.01
		C105.26,67.63,104.95,67.31,104.56,67.31z M108.72,64.47c0.39,0,0.71-0.31,0.71-0.71c0-0.39-0.31-0.71-0.71-0.71
		c-0.39,0-0.71,0.31-0.71,0.71c0,0,0,0,0,0C108.01,64.15,108.33,64.47,108.72,64.47L108.72,64.47z M106.64,67.31
		c-0.39,0-0.71,0.31-0.71,0.71c0,0.39,0.31,0.71,0.71,0.71c0.39,0,0.71-0.31,0.71-0.71c0,0,0,0,0,0
		C107.35,67.63,107.03,67.31,106.64,67.31z M108.72,67.31c-0.39,0-0.71,0.31-0.71,0.71c0,0.39,0.31,0.71,0.71,0.71
		c0.39,0,0.71-0.31,0.71-0.71c0,0,0,0,0,0C109.43,67.63,109.11,67.31,108.72,67.31z M108.72,65.18c-0.39,0-0.71,0.31-0.71,0.71
		c0,0.39,0.31,0.71,0.71,0.71c0.39,0,0.71-0.31,0.71-0.71c0,0,0,0,0-0.01C109.43,65.5,109.11,65.18,108.72,65.18L108.72,65.18z
		 M106.64,65.18c-0.39,0-0.71,0.31-0.71,0.71c0,0.39,0.31,0.71,0.71,0.71c0.39,0,0.71-0.31,0.71-0.71c0,0,0,0,0-0.01
		C107.35,65.5,107.03,65.18,106.64,65.18L106.64,65.18z M106.64,63.05c-0.39,0-0.71,0.31-0.71,0.71c0,0.39,0.31,0.71,0.71,0.71
		c0.39,0,0.71-0.31,0.71-0.71c0,0,0,0,0,0C107.35,63.37,107.03,63.05,106.64,63.05z"/>
	<g class="st7">
		<circle class="st6" cx="90.83" cy="84.81" r="5.95"/>
		<path class="st1" d="M93.62,85.18h-2.42v2.42h-0.74v-2.42h-2.42v-0.74h2.42v-2.42h0.74v2.42h2.42V85.18z"/>
	</g>
	<circle class="st6" cx="122.44" cy="66.96" r="5.95"/>
	<path class="st1" d="M122.44,63.33c-1.87,0.02-3.37,1.56-3.35,3.44c0,0,0,0,0,0v2.67c-0.01,0.62,0.49,1.14,1.12,1.15c0,0,0,0,0,0
		h1.12v-3.07h-1.49v-0.74c0-1.44,1.17-2.6,2.6-2.6s2.6,1.17,2.6,2.6v0.74h-1.49v3.07h1.12c0.62-0.01,1.12-0.52,1.12-1.14
		c0,0,0,0,0,0v-2.67C125.82,64.89,124.32,63.35,122.44,63.33C122.44,63.33,122.44,63.33,122.44,63.33z"/>
	<g class="st7">
		<circle class="st6" cx="106.64" cy="84.81" r="5.95"/>
		<path class="st1" d="M108.87,84.17v-1.49c0-0.24-0.2-0.43-0.44-0.42c0,0,0,0,0,0h-5.27c-0.24,0-0.43,0.19-0.43,0.42v4.24
			c0,0.24,0.2,0.43,0.43,0.42h5.27c0.24,0,0.43-0.19,0.44-0.42v-1.49l1.67,1.7v-4.66L108.87,84.17z"/>
	</g>
	<circle class="st6" cx="122.44" cy="84.81" r="5.95"/>
	<path class="st1" d="M122.15,86.34c-0.65,0.37-1.45,0.37-2.1,0c-0.82,0.25-1.33,1.08-1.51,1.81h5.12
		C123.48,87.42,122.97,86.59,122.15,86.34z M121.1,82.43c-1.02,0-1.85,0.82-1.85,1.84c0,1.02,0.82,1.85,1.84,1.85
		c1.02,0,1.85-0.82,1.85-1.84c0,0,0,0,0,0C122.95,83.26,122.12,82.43,121.1,82.43L121.1,82.43z M121.1,85.68
		c-0.57-0.01-1.07-0.36-1.29-0.88h2.58C122.17,85.33,121.67,85.67,121.1,85.68L121.1,85.68z"/>
	<path class="st1" d="M123.6,87.04h2.74c-0.17-0.79-0.75-1.42-1.51-1.67c-0.32,0.18-0.68,0.28-1.05,0.28
		c-0.25,0-0.49-0.04-0.73-0.12c-0.13,0.23-0.29,0.43-0.49,0.61C123,86.32,123.36,86.64,123.6,87.04z M123.33,83.83h1.75
		c-0.22,0.52-0.72,0.87-1.29,0.88c-0.15,0-0.3-0.03-0.44-0.08c-0.02,0.15-0.06,0.3-0.11,0.44c0.97,0.31,2.01-0.23,2.32-1.2
		c0.31-0.97-0.23-2.01-1.2-2.32c-0.18-0.06-0.37-0.09-0.56-0.09c-0.63,0-1.22,0.32-1.56,0.86C122.8,82.64,123.19,83.19,123.33,83.83
		L123.33,83.83z"/>
	<circle class="st8" cx="106.64" cy="108.61" r="5.95"/>
	<path class="st1" d="M103.58,110.08c0.33-0.31,0.7-0.56,1.1-0.76c0.13-0.06,0.21-0.18,0.21-0.32l0.03-1.16
		c1.14-0.34,2.35-0.31,3.47,0.09l-0.03,1.16c0,0.14,0.07,0.26,0.19,0.33c0.4,0.21,0.77,0.49,1.08,0.82
		c0.14,0.15,0.38,0.16,0.53,0.02c0,0,0,0,0,0l0.94-0.9c0.15-0.14,0.16-0.38,0.01-0.52c-2.4-2.54-6.4-2.64-8.94-0.24c0,0,0,0,0,0
		c-0.15,0.14-0.15,0.38-0.01,0.53c0,0,0,0,0,0l0.89,0.94C103.2,110.21,103.43,110.22,103.58,110.08
		C103.58,110.08,103.58,110.08,103.58,110.08L103.58,110.08z"/>
	<circle class="st6" cx="123.19" cy="46.13" r="4.65"/>
	<path class="st1" d="M124.24,47.17c-0.65,0.37-1.45,0.37-2.1,0c-0.82,0.25-1.33,1.08-1.51,1.81h5.12
		C125.56,48.25,125.06,47.42,124.24,47.17z M123.19,43.27c-1.02,0-1.85,0.82-1.85,1.84c0,1.02,0.82,1.85,1.84,1.85
		s1.85-0.82,1.85-1.84c0,0,0,0,0,0C125.03,44.1,124.21,43.27,123.19,43.27z M123.19,46.52c-0.57-0.01-1.07-0.36-1.29-0.88h2.58
		C124.26,46.16,123.76,46.51,123.19,46.52L123.19,46.52z"/>
	<path class="st9" d="M76.71,13.2c-0.43-0.25-1.02-0.01-1.32,0.39c-0.3,0.4-0.37,0.93-0.46,1.42c-0.17,1.1-0.29,2.36,0.46,3.19
		c-1.21-3.68-4.7-6.49-8.55-6.9"/>
	<path class="st9" d="M151.84,73.87c-0.28-0.16-0.65,0-0.85,0.25c-0.17,0.28-0.27,0.59-0.29,0.91c-0.11,0.71-0.19,1.52,0.29,2.05
		c-0.83-2.41-2.97-4.13-5.49-4.44"/>
	<path class="st9" d="M57.1,49.83c-0.28-0.16-0.65,0-0.85,0.25c-0.17,0.28-0.27,0.59-0.29,0.91c-0.11,0.71-0.19,1.52,0.29,2.05
		c-0.83-2.41-2.97-4.13-5.49-4.44"/>
	
		<linearGradient id="SVGID_1_" gradientUnits="userSpaceOnUse" x1="1369.0045" y1="-62.5821" x2="1369.0045" y2="1.8106" gradientTransform="matrix(-1 0 0 -1 1514.85 80.29)">
		<stop  offset="0" style="stop-color:#808080;stop-opacity:0.25"/>
		<stop  offset="0.54" style="stop-color:#808080;stop-opacity:0.12"/>
		<stop  offset="1" style="stop-color:#808080;stop-opacity:0.1"/>
	</linearGradient>
	<path class="st10" d="M131.06,136.78c0.19,0.35,0.54,0.57,0.87,0.76c2.34,1.34,4.8,2.45,7.36,3.31c0.23,0.14,0.53,0.06,0.67-0.18
		c0.02-0.03,0.03-0.06,0.04-0.1c0.29-0.49,0.62-1.3,0.54-1.95c0.24-0.15,0.42-0.38,0.49-0.65c0.1-0.33,0.25-0.65,0.45-0.93
		c0.35-0.52,0.77-1.05,0.82-1.69c0-0.23,0.02-0.45,0.07-0.68c0.1-0.29,0.36-0.49,0.56-0.72c0.31-0.37,0.45-0.85,0.59-1.32
		c0.58-1.94,1.16-3.88,1.64-5.85c0.16-0.64,0.3-1.28,0.52-1.9c0.19-0.54,0.42-1.06,0.66-1.58c0.84-1.89,1.83-3.71,2.94-5.45
		c0.17,0.59,0.38,1.16,0.63,1.72c0.13,0.29,0.26,0.57,0.39,0.86c0.49,1.09,0.4,2.48,0.99,3.5c0.25,0.42,0.49,0.84,0.73,1.26
		c0.14,0.2,0.24,0.43,0.31,0.66c0.04,0.16,0.04,0.33,0.07,0.5c0.13,0.74,0.73,1.27,1.07,1.93c0.31,0.61,0.37,1.3,0.56,1.97
		c0.44,1.54,1.52,2.88,1.63,4.49c0.01,0.43,0,0.87-0.03,1.3c-0.03,0.76,0.02,1.52,0.15,2.26c0.01,0.08,0.03,0.15,0.06,0.22
		c-0.95,1.42-2.42,2.41-4.09,2.76c-0.32,0.06-0.68,0.13-0.84,0.42c-0.2,0.35,0.03,0.82,0.37,1.01s0.74,0.17,1.12,0.13
		c2.67-0.22,5.31-0.71,7.88-1.45c0.13-0.03,0.25-0.09,0.34-0.19c0.09-0.14,0.13-0.3,0.11-0.46c0-0.6-0.14-1.19-0.41-1.73l0.19-0.07
		c0.1-0.74-0.28-1.46-0.58-2.15c-0.52-1.2-0.8-2.5-1.21-3.75c-0.79-2.42-2.06-4.67-2.37-7.2c-0.08-0.7-0.29-1.4-0.34-2.1
		c-0.09-1.42-0.19-2.86-0.5-4.24c-0.26-1.14-0.67-2.23-0.93-3.39s-0.34-2.37,0.04-3.47c0.11-0.32,0.25-0.62,0.35-0.93
		c0.37-1.23,0.02-2.56-0.34-3.8c-0.11-0.39-0.23-0.78-0.34-1.17c-0.15-0.51-0.3-1.02-0.46-1.53c0.02-0.02,0.04-0.04,0.07-0.07
		c0.33-0.37,0.32-0.94,0.56-1.39c0.12-0.23,0.29-0.42,0.41-0.64c0.23-0.48,0.29-1.03,0.17-1.55c-0.1-0.52-0.3-1.02-0.44-1.52
		c-0.4-1.39-0.43-2.87-0.09-4.28c0.15-0.6,0.37-1.19,0.4-1.81c0.01-0.41-0.03-0.83-0.11-1.23c-0.29-1.56-0.85-3.15-2-4.18
		c-0.61-0.56-1.44-1.05-1.5-1.89c-0.1-0.04-0.21-0.04-0.31-0.01c-0.05-0.19-0.09-0.39-0.1-0.59h0.01c0.06,0.01,0.11,0.01,0.17,0
		c0.05,0,0.1-0.02,0.14-0.04c0.02-0.01,0.05-0.03,0.07-0.05c0.07-0.07,0.13-0.16,0.19-0.25c0.08-0.13,0.15-0.26,0.2-0.36
		c0.06-0.09,0.15-0.24,0.22-0.37c0.22-0.37,0.42-0.75,0.6-1.13v-0.01c0.02-0.04,0.04-0.07,0.05-0.11l0.02-0.05l0.03-0.08
		c0-0.02,0.02-0.04,0.02-0.06c0.01-0.02,0.02-0.05,0.03-0.07l0.03-0.06c0.01-0.02,0.02-0.04,0.03-0.07
		c0.01-0.02,0.02-0.04,0.02-0.06c0.01-0.02,0.02-0.04,0.02-0.07c0.01-0.02,0.01-0.04,0.02-0.07c0.01-0.02,0.01-0.04,0.02-0.07
		l0.02-0.07c0-0.02,0.01-0.04,0.02-0.07l0.02-0.07l0.02-0.07l0.02-0.07c0-0.02,0-0.04,0.01-0.06c0.01-0.02,0-0.05,0.01-0.07
		c0.01-0.02,0-0.04,0-0.06l0.01-0.07v-0.06c0-0.03,0-0.05,0-0.07c0-0.02,0-0.04,0-0.06s0-0.05,0-0.07v-0.04c0-0.03,0-0.05,0-0.08
		c0-0.03,0-0.04,0-0.06c0-0.02,0-0.05,0-0.08c0-0.03,0-0.04,0-0.05c-0.01-0.07-0.02-0.14-0.04-0.22c-0.13-0.43-0.38-0.82-0.73-1.1
		c-0.34-0.28-0.71-0.5-1.12-0.67c-0.1-0.04-0.19-0.09-0.26-0.17c-0.09-0.13-0.16-0.27-0.22-0.42c-0.16-0.29-0.49-0.41-0.8-0.49
		c-0.31-0.08-0.64-0.12-0.89-0.32c-0.02-0.02-0.05-0.03-0.08-0.04c-0.04,0-0.08,0.01-0.11,0.02l-0.72,0.32
		c-0.03-0.19-0.2-0.31-0.39-0.28c0,0,0,0,0,0c-0.18,0.04-0.34,0.13-0.46,0.27c-0.04-0.04-0.06-0.11-0.04-0.17l-0.56,0.37
		c-0.07,0.04-0.2,0.06-0.19-0.03c-0.31,0.34-0.58,0.71-0.8,1.12c-0.07,0.12-0.13,0.25-0.17,0.38l0,0c0,0.03-0.02,0.06-0.02,0.08
		c0,0.01,0,0.01,0,0.02c0,0.02-0.01,0.05-0.01,0.08c0,0.01,0,0.01,0,0.02c0,0.03,0,0.07,0,0.1l0,0c0,0.04,0,0.07,0,0.11
		c0.01,0.21,0.13,0.4,0.32,0.49c0.07,0.03,0.15,0.04,0.22,0.04c0.16-0.02,0.32-0.05,0.47-0.1c0.05-0.01,0.1-0.02,0.15-0.03
		c0.02,0,0.05,0,0.07,0c0.1,0,0.19,0.03,0.27,0.09l0.01,0.01c-0.82,0.59-1.31,1.55-1.3,2.56c0,0.49,0.11,0.98,0.33,1.42
		c-0.15,0.08-0.24,0.25-0.23,0.42c-0.05-0.14-0.07-0.29-0.08-0.44c-0.3-0.06-0.53,0.3-0.64,0.6c-0.23,0.69-0.4,1.4-0.52,2.12
		c-0.09,0.48-0.19,0.96-0.28,1.43c-0.1,0.48-0.19,0.99-0.26,1.49c-0.16,1.29-0.11,2.6,0.17,3.87c-0.02,0.04-0.04,0.08-0.05,0.12
		c-0.06,0.15-0.21,0.28-0.23,0.43c-0.1,0.95,0.5,1.8,1.06,2.54c0.05,0.08,0.11,0.14,0.19,0.19c0.08,0.03,0.17,0.05,0.26,0.03
		c0.23-0.01,0.45-0.03,0.67-0.07c0.01,0.13,0.03,0.25,0.04,0.37c0.16,1.34,0.43,2.67,0.43,4.01c0,1.34-0.26,2.71,0.26,3.9
		c0.09,0.2,0.25,0.37,0.27,0.58h0.03c-0.31,0.64-0.57,1.31-0.77,2c-0.2,0.81-0.25,1.65-0.48,2.45c-0.2,0.68-0.52,1.3-0.78,1.96
		c-0.43,1.08-0.68,2.21-0.74,3.37c-0.01,0.53-0.11,1.05-0.32,1.55c-0.3,0.59-0.56,1.2-0.79,1.82c-0.37,1.1-1,2.15-1.12,3.32
		c-0.07,0.66,0.03,1.37-0.25,1.97c-0.11,0.23-0.27,0.44-0.39,0.66c-0.18,0.35-0.33,0.73-0.43,1.12l-1.84,6.1
		c-0.07,0.34-0.22,0.65-0.45,0.91c-0.17,0.16-0.4,0.25-0.56,0.42c-0.26,0.26-0.33,0.65-0.33,1.05c-0.2,0.04-0.39,0.1-0.57,0.19
		c-1.57,0.67-3.35,0.67-4.93,0c-0.3-0.13-0.64-0.28-0.93-0.13C130.93,135.91,130.87,136.43,131.06,136.78z M145.72,90.54
		c0.11-0.51,0.32-0.98,0.61-1.41c0.42-0.69,0.86-1.36,1.25-2.07l0.11-0.11c0.03,0.09,0.06,0.19,0.09,0.27
		c0.07,0.24,0.12,0.48,0.17,0.73c0.06,0.31,0.08,0.62,0.05,0.93l-0.03,0.02c-0.15,0.1-0.27,0.23-0.35,0.39
		c-0.05,0.16-0.05,0.33,0,0.49l-0.02,0.02l0.02-0.01c0.07,0.26,0.19,0.52,0.15,0.78c-0.04,0.31-0.3,0.54-0.45,0.81
		c-0.37,0.65-0.25,1.63-0.86,2.03l-0.01,0.03l0,0c-0.27-0.06-0.49-0.25-0.6-0.49l0,0C145.9,92.15,145.6,91.33,145.72,90.54z"/>
	<path class="st3" d="M160.98,140.78c0.02,0.16-0.02,0.32-0.12,0.46c-0.1,0.09-0.22,0.16-0.36,0.19c-2.68,0.73-5.43,1.22-8.21,1.44
		c-0.4,0.03-0.82,0.05-1.17-0.13c-0.35-0.18-0.59-0.65-0.37-0.99c0.17-0.29,0.56-0.35,0.88-0.41c1.74-0.34,3.28-1.34,4.31-2.79
		c0.12-0.21,0.28-0.39,0.47-0.54c0.36-0.24,0.83-0.19,1.25-0.1c0.74,0.15,1.73,0.33,2.4,0.7
		C160.74,138.95,160.97,140.07,160.98,140.78z"/>
	<path class="st2" d="M160.98,140.78c0.02,0.16-0.02,0.32-0.12,0.46c-0.1,0.09-0.22,0.16-0.36,0.19c-2.68,0.73-5.43,1.22-8.21,1.44
		c-0.4,0.03-0.82,0.05-1.17-0.13c-0.35-0.18-0.59-0.65-0.37-0.99c0.17-0.29,0.56-0.35,0.88-0.41c1.74-0.34,3.28-1.34,4.31-2.79
		c0.12-0.21,0.28-0.39,0.47-0.54c0.36-0.24,0.83-0.19,1.25-0.1c0.74,0.15,1.73,0.33,2.4,0.7
		C160.74,138.95,160.97,140.07,160.98,140.78z"/>
	<path class="st3" d="M139.37,140.6c-0.07,0.15-0.2,0.26-0.35,0.32c-0.13,0.02-0.27,0.01-0.4-0.05c-2.65-0.85-5.22-1.94-7.66-3.27
		c-0.35-0.19-0.71-0.4-0.91-0.74c-0.2-0.34-0.14-0.87,0.22-1.04c0.3-0.15,0.65,0,0.96,0.13c1.65,0.66,3.49,0.66,5.13,0
		c0.22-0.11,0.45-0.18,0.69-0.2c0.43-0.01,0.8,0.29,1.12,0.6c0.54,0.53,1.27,1.22,1.63,1.89S139.75,140,139.37,140.6z"/>
	<path class="st2" d="M139.37,140.6c-0.07,0.15-0.2,0.26-0.35,0.32c-0.13,0.02-0.27,0.01-0.4-0.05c-2.65-0.85-5.22-1.94-7.66-3.27
		c-0.35-0.19-0.71-0.4-0.91-0.74c-0.2-0.34-0.14-0.87,0.22-1.04c0.3-0.15,0.65,0,0.96,0.13c1.65,0.66,3.49,0.66,5.13,0
		c0.22-0.11,0.45-0.18,0.69-0.2c0.43-0.01,0.8,0.29,1.12,0.6c0.54,0.53,1.27,1.22,1.63,1.89S139.75,140,139.37,140.6z"/>
	<path class="st3" d="M153.54,104.99c0.28,0.74,0.51,1.49,0.74,2.23l0.35,1.15c0.37,1.22,0.74,2.53,0.36,3.74
		c-0.1,0.31-0.25,0.61-0.37,0.93c-0.39,1.09-0.3,2.3-0.04,3.43c0.26,1.13,0.69,2.21,0.96,3.35c0.33,1.37,0.42,2.79,0.52,4.19
		c0.05,0.69,0.26,1.39,0.35,2.07c0.32,2.49,1.65,4.73,2.47,7.1c0.43,1.23,0.72,2.51,1.26,3.7c0.31,0.68,0.71,1.39,0.6,2.12
		c-1.51,0.54-3.19,0.53-4.61-0.21c-0.18-0.07-0.31-0.24-0.31-0.43c-0.13-0.74-0.18-1.48-0.15-2.23c0.04-0.43,0.05-0.85,0.03-1.28
		c-0.11-1.59-1.24-2.91-1.7-4.43c-0.19-0.65-0.27-1.34-0.59-1.94c-0.35-0.65-0.98-1.18-1.12-1.91c-0.03-0.16-0.03-0.33-0.07-0.49
		c-0.08-0.23-0.19-0.46-0.33-0.66l-0.76-1.24c-0.62-1.01-0.53-2.38-1.04-3.45c-0.13-0.28-0.28-0.56-0.41-0.85
		c-0.25-0.55-0.47-1.12-0.66-1.7c-1.16,1.71-2.18,3.51-3.07,5.37c-0.26,0.51-0.49,1.03-0.69,1.56c-0.22,0.61-0.37,1.24-0.54,1.87
		c-0.5,1.94-1.12,3.86-1.71,5.76c-0.15,0.46-0.3,0.93-0.62,1.3c-0.2,0.23-0.48,0.42-0.58,0.71c-0.05,0.22-0.07,0.44-0.07,0.67
		c-0.06,0.63-0.5,1.15-0.86,1.67c-0.21,0.28-0.37,0.6-0.47,0.93c-0.17,0.58-0.77,0.91-1.35,0.75c-0.05-0.01-0.09-0.03-0.14-0.05
		h-0.01c-0.15-0.07-0.29-0.16-0.42-0.25c-0.35-0.22-0.69-0.47-1-0.74c-0.28-0.27-0.53-0.56-0.74-0.88
		c-0.13-0.19-0.09-0.46,0.11-0.59c0.03-0.02,0.07-0.04,0.11-0.05l0,0c-0.04-0.52-0.05-1.11,0.32-1.46c0.17-0.17,0.41-0.26,0.59-0.42
		c0.23-0.25,0.39-0.56,0.47-0.89c0.63-2,1.27-4,1.9-5.99c0.11-0.38,0.26-0.76,0.45-1.1c0.13-0.22,0.3-0.42,0.41-0.65
		c0.29-0.59,0.19-1.29,0.26-1.94c0.12-1.15,0.77-2.18,1.16-3.27c0.23-0.62,0.51-1.21,0.82-1.79c0.21-0.48,0.32-1,0.33-1.52
		c0.07-1.14,0.33-2.27,0.77-3.32c0.27-0.65,0.61-1.27,0.81-1.94c0.24-0.79,0.28-1.63,0.5-2.42c0.21-0.68,0.48-1.35,0.81-1.98
		c0.27-0.56,0.55-1.13,0.99-1.56c0.73-0.71,1.8-0.94,2.82-0.97C151.4,104.95,152.53,105.1,153.54,104.99z"/>
	<path class="st11" d="M147.3,90.51c1.31-0.77,2.6-1.57,3.88-2.39c-0.31-0.41-0.48-0.91-0.49-1.43c0-0.02,0-0.04,0-0.06
		c-0.02-0.5,0.17-0.93-0.46-0.86c-0.61,0.08-1.2,0.2-1.79,0.37c-0.17,0.04-1.62,0.58-1.67,0.52c0.32,0.38,0.56,0.83,0.7,1.31
		c0.07,0.24,0.13,0.47,0.17,0.72C147.78,89.33,147.78,90.08,147.3,90.51z"/>
	<path class="st3" d="M145.54,99.09c0.17,1.32,0.45,2.63,0.45,3.96s-0.27,2.67,0.27,3.86c0.09,0.2,0.26,0.36,0.28,0.58
		c0.74,0.13,1.47-0.22,2.18-0.47c0.65-0.23,1.32-0.38,2.01-0.45c0.56-0.06,1.13-0.06,1.68-0.17c0.55-0.09,1.06-0.35,1.46-0.74
		c0.34-0.37,0.34-0.93,0.57-1.37c0.12-0.22,0.3-0.41,0.43-0.63c0.24-0.47,0.3-1.02,0.17-1.53c-0.13-0.51-0.28-1.01-0.46-1.5
		c-0.42-1.37-0.45-2.83-0.09-4.22c0.16-0.59,0.38-1.18,0.42-1.79c0.01-0.41-0.03-0.82-0.12-1.22c-0.3-1.54-0.89-3.1-2.08-4.12
		c-0.64-0.54-1.5-1.03-1.57-1.86c-0.28-0.11-0.57,0.08-0.81,0.25l-2.65,1.95c-0.16,0.09-0.29,0.23-0.37,0.39
		c-0.17,0.4,0.22,0.83,0.15,1.26c-0.04,0.31-0.31,0.54-0.47,0.8c-0.39,0.64-0.26,1.61-0.9,2c-0.06,0.12-0.11,0.24-0.16,0.37
		c-0.23,0.65-0.38,1.32-0.46,2.01C145.39,97.34,145.41,98.22,145.54,99.09z"/>
	<path class="st2" d="M146.78,86.66c0.32,0.38,0.56,0.83,0.7,1.31c0.21,0.05,0.43,0.07,0.64,0.07c1.08,0,1.81-1.24,2.34-2.09
		c-0.02-0.5,0.4-0.25-0.23-0.19c-0.61,0.08-1.2,0.2-1.79,0.37C148.28,86.18,146.83,86.72,146.78,86.66z"/>
	<circle class="st11" cx="148.13" cy="84.75" r="3.04"/>
	<path class="st3" d="M146.5,87.67l-0.7-0.77c-0.23-0.25-0.21-0.64,0.04-0.87l2.36-2.16c0.25-0.23,0.64-0.21,0.87,0.04l0.7,0.77
		c0.23,0.25,0.21,0.64-0.04,0.87l-2.36,2.16C147.13,87.94,146.73,87.93,146.5,87.67z"/>
	<path class="st2" d="M146.5,87.67l-0.7-0.77c-0.23-0.25-0.21-0.64,0.04-0.87l2.36-2.16c0.25-0.23,0.64-0.21,0.87,0.04l0.7,0.77
		c0.23,0.25,0.21,0.64-0.04,0.87l-2.36,2.16C147.13,87.94,146.73,87.93,146.5,87.67z"/>
	<circle class="st1" cx="148.32" cy="85.32" r="0.25"/>
	<path class="st2" d="M145.54,99.09c2.35-0.35,4.48-1.76,6.11-3.5c0.3-0.29,0.54-0.64,0.69-1.03c0.08-0.33,0.11-0.67,0.08-1
		l-0.04-1.34c-0.02-0.59-0.04-1.2-0.33-1.71c-0.28-0.51-0.92-0.88-1.47-0.67c-1.44,0.56-2.37,1.83-3.19,3.14
		c-0.24,0.41-0.49,0.8-0.77,1.18c-0.14,0.18-0.33,0.36-0.56,0.33c-0.05,0-0.1-0.02-0.14-0.04c-0.23,0.65-0.38,1.32-0.46,2.01
		C145.39,97.33,145.41,98.22,145.54,99.09z"/>
	<path class="st11" d="M145.33,91.25c0.12-0.5,0.33-0.98,0.64-1.39c0.91-1.42,1.93-2.81,2.42-4.43c-0.71,0.13-0.82,1.35-1.54,1.4
		l0.06-0.88c0-0.15,0-0.33-0.12-0.41c-0.12-0.08-0.34,0.02-0.42,0.17s-0.1,0.33-0.17,0.48c-0.07,0.15-0.25,0.28-0.4,0.22l-0.06-0.29
		c-0.24-0.05-0.48,0.1-0.53,0.35c-0.01,0.04-0.01,0.07-0.01,0.11c-0.05-0.14-0.08-0.29-0.08-0.44c-0.32-0.06-0.55,0.29-0.66,0.6
		c-0.24,0.68-0.42,1.38-0.55,2.09l-0.29,1.42c-0.1,0.49-0.2,0.98-0.27,1.47c-0.18,1.31-0.11,2.64,0.2,3.92
		c0.39-0.22,0.77-0.45,1.13-0.71c0.28-0.24,0.6-0.51,0.7-0.87C145.64,93.13,145.18,92.17,145.33,91.25z"/>
	<path class="st3" d="M150.59,89.45c0.55-0.21,1.18,0.16,1.47,0.67s0.31,1.12,0.33,1.71l0.04,1.35c0.03,0.34,0,0.67-0.08,1
		c-0.15,0.39-0.38,0.74-0.69,1.03c-1.8,1.93-4.22,3.45-6.86,3.58c-0.09,0.01-0.19,0-0.27-0.03c-0.08-0.05-0.14-0.11-0.19-0.19
		c-0.59-0.73-1.21-1.57-1.12-2.51c0.02-0.16,0.19-0.28,0.24-0.43c0.35-0.85,1-1.53,1.83-1.93l0.16-0.07
		c0.12,0.25,0.35,0.43,0.63,0.49c0.22,0.02,0.41-0.16,0.56-0.33c0.28-0.38,0.53-0.78,0.77-1.18
		C148.22,91.28,149.16,90.01,150.59,89.45z"/>
	<path class="st3" d="M150.41,86.74c-0.26-0.13-0.3-0.48-0.33-0.77c-0.03-0.34-0.08-0.67-0.15-1c-0.08-0.37-0.21-0.75-0.53-0.95
		c-0.36-0.22-0.84-0.11-1.06,0.25c-0.06,0.1-0.1,0.21-0.11,0.32c0,0.06-0.01,0.12-0.05,0.17c-0.02,0.02-0.06,0.04-0.09,0.05
		c-0.3,0.07-0.61-0.1-0.7-0.4c-0.05-0.19-0.01-0.43-0.15-0.58c-0.13-0.15-0.29-0.15-0.42-0.25c-0.16-0.16-0.23-0.37-0.21-0.6
		c0-0.28,0.04-0.61-0.19-0.78c-0.34-0.26-0.84,0.15-1.24,0c-0.22-0.11-0.36-0.34-0.34-0.59c0.02-0.24,0.11-0.48,0.24-0.68
		c0.23-0.4,0.51-0.77,0.83-1.1c0,0.08,0.13,0.07,0.2,0.03l0.59-0.36c-0.02,0.06,0,0.13,0.05,0.17c0.13-0.13,0.3-0.22,0.48-0.26
		c0.19-0.04,0.37,0.09,0.41,0.28l0.74-0.32c0.06-0.04,0.15-0.03,0.2,0.02c0.27,0.19,0.61,0.24,0.93,0.31
		c0.32,0.07,0.66,0.2,0.83,0.49c0.06,0.15,0.14,0.28,0.23,0.41c0.08,0.07,0.18,0.13,0.28,0.17c0.42,0.16,0.81,0.39,1.17,0.66
		c0.36,0.28,0.62,0.66,0.76,1.09c0.2,0.72-0.09,1.49-0.43,2.16c-0.26,0.51-0.54,1-0.86,1.48c-0.12,0.19-0.28,0.54-0.47,0.65
		C150.82,86.85,150.6,86.83,150.41,86.74z"/>
	<path class="st2" d="M145.19,81.45c0.4,0.15,0.9-0.26,1.24,0c0.22,0.17,0.19,0.5,0.19,0.78c-0.02,0.22,0.05,0.44,0.21,0.6
		c0.13,0.1,0.31,0.12,0.42,0.25c0.11,0.12,0.09,0.38,0.15,0.58c0.1,0.29,0.4,0.47,0.7,0.4c0.03-0.01,0.06-0.02,0.09-0.05
		c0.04-0.05,0.06-0.11,0.05-0.17c0.05-0.42,0.43-0.73,0.85-0.69c0.12,0.01,0.23,0.05,0.32,0.11c0.32,0.2,0.45,0.59,0.53,0.95
		c0.07,0.33,0.13,0.67,0.15,1c0.03,0.29,0.07,0.63,0.33,0.77c0.2,0.1,0.42,0.12,0.64,0.06c0.19-0.11,0.36-0.46,0.47-0.65
		c0.32-0.48,0.61-0.97,0.86-1.49c0.21-0.4,0.37-0.82,0.46-1.26c0.13,0.68-0.14,1.39-0.46,2.02c-0.26,0.51-0.54,1-0.86,1.48
		c-0.12,0.19-0.28,0.54-0.47,0.65c-0.21,0.06-0.44,0.04-0.64-0.06c-0.26-0.13-0.3-0.48-0.33-0.77c-0.03-0.34-0.08-0.67-0.15-1
		c-0.08-0.37-0.21-0.75-0.53-0.95c-0.36-0.22-0.84-0.11-1.06,0.25c-0.06,0.1-0.1,0.21-0.11,0.32c0,0.06-0.01,0.12-0.05,0.17
		c-0.02,0.02-0.06,0.04-0.09,0.05c-0.3,0.07-0.61-0.1-0.7-0.4c-0.05-0.19-0.01-0.43-0.15-0.58c-0.13-0.15-0.29-0.15-0.42-0.25
		c-0.16-0.16-0.23-0.37-0.21-0.6c0-0.28,0.04-0.61-0.19-0.78c-0.34-0.26-0.84,0.15-1.24,0c-0.22-0.11-0.36-0.34-0.34-0.59
		c0.01-0.13,0.04-0.27,0.09-0.39C145,81.32,145.08,81.41,145.19,81.45z"/>
</g>
</svg>
